# xmcd
# 
# Track frame offsets:
#     150
#     14944
#     26466
#     39729
#     48497
#     61211
#     76965
#     89290
#     100234
#     111718
#     126771
# 
# Disc length: 1882
# 
# Revision: 1
# Processed by: cddbd v1.5.2PL0 Copyright (c) Steve Scherf et al.
# Submitted via: fre:ac v1.0.31
# 
DISCID=9507580b
DTITLE=Wavves - V
DYEAR=2015
DGENRE=New Age
TTITLE0=Heavy Metal Detox
TTITLE1=Way Too Much
TTITLE2=Pony
TTITLE3=All The Same
TTITLE4=My Head Hurts
TTITLE5=Redlead
TTITLE6=Heart Attack
TTITLE7=Flamezesz
TTITLE8=Wait
TTITLE9=Tarantula
TTITLE10=Cry Baby
EXTD=YEAR: 2015
EXTT0=
EXTT1=
EXTT2=
EXTT3=
EXTT4=
EXTT5=
EXTT6=
EXTT7=
EXTT8=
EXTT9=
EXTT10=
PLAYORDER=
